# Created by CloudCompare v2.13.1 (Kharkiv - Mar 22 2024)
# Created 2024-03-26T16:08:44
v 0.04978786 0.06873183 0.14391601
v 0.11334261 0.00517707 0.13371600
v 0.11334261 0.00517707 0.14391601
v 0.04978786 0.06873183 0.13371600
v 0.11334261 0.00517707 0.14391601
v -0.02539173 -0.13355726 0.13371600
v -0.02539173 -0.13355726 0.14391601
v 0.11334261 0.00517707 0.13371600
v -0.02539173 -0.13355726 0.13371600
v -0.08894648 -0.07000251 0.14391601
v -0.02539173 -0.13355726 0.14391601
v -0.08894648 -0.07000251 0.13371600
v -0.03073746 0.14925715 0.14391601
v 0.03281730 0.08570239 0.13371600
v 0.03281730 0.08570239 0.14391601
v -0.03073746 0.14925715 0.13371600
v 0.03281730 0.08570239 0.14391601
v -0.10591704 -0.05303195 0.13371600
v -0.10591704 -0.05303195 0.14391601
v 0.03281730 0.08570239 0.13371600
v -0.10591704 -0.05303195 0.13371600
v -0.16947180 0.01052281 0.14391601
v -0.10591704 -0.05303195 0.14391601
v -0.16947180 0.01052281 0.13371600
v -0.05509020 -0.19549982 0.14391601
v 0.17528518 0.03487555 0.13371600
v 0.17528518 0.03487555 0.14391601
v -0.05509020 -0.19549982 0.13371600
v 0.17528518 0.03487555 0.14391601
v -0.00103898 0.21119972 0.13371600
v -0.00103898 0.21119972 0.14391601
v 0.17528518 0.03487555 0.13371600
v -0.00103898 0.21119972 0.13371600
v -0.23141436 -0.01917567 0.14391601
v -0.00103898 0.21119972 0.14391601
v -0.23141436 -0.01917567 0.13371600
v -0.16947180 0.01052281 0.13371600
v -0.03073746 0.14925715 0.14391601
v -0.16947180 0.01052281 0.14391601
v -0.03073746 0.14925715 0.13371600
v -0.23141436 -0.01917567 0.13371600
v -0.05509020 -0.19549982 0.14391601
v -0.23141436 -0.01917567 0.14391601
v -0.05509020 -0.19549982 0.13371600
v -0.08894648 -0.07000251 0.13371600
v 0.04978786 0.06873183 0.14391601
v -0.08894648 -0.07000251 0.14391601
v 0.04978786 0.06873183 0.13371600
v -0.08894648 -0.07000251 0.14391601
v -0.05509020 -0.19549982 0.14391601
v -0.02539173 -0.13355726 0.14391601
v -0.23141436 -0.01917567 0.14391601
v -0.00103898 0.21119972 0.14391601
v 0.03281730 0.08570239 0.14391601
v 0.17528518 0.03487555 0.14391601
v -0.03073746 0.14925715 0.14391601
v 0.11334261 0.00517707 0.14391601
v 0.04978786 0.06873183 0.14391601
v -0.10591704 -0.05303195 0.14391601
v -0.16947180 0.01052281 0.14391601
v 0.03281730 0.08570239 0.13371600
v 0.04978786 0.06873183 0.13371600
v -0.10591704 -0.05303195 0.13371600
v 0.11334261 0.00517707 0.13371600
v 0.17528518 0.03487555 0.13371600
v -0.02539173 -0.13355726 0.13371600
v -0.00103898 0.21119972 0.13371600
v -0.05509020 -0.19549982 0.13371600
v -0.08894648 -0.07000251 0.13371600
v -0.23141436 -0.01917567 0.13371600
v -0.16947180 0.01052281 0.13371600
v -0.03073746 0.14925715 0.13371600
vn -0.70848584 -0.70572370 0.00138106
vn -0.70848584 -0.70572370 0.00138106
vn -0.70848584 -0.70572370 0.00138106
vn -0.70848584 -0.70572370 0.00138106
vn -0.70572370 0.70848584 0.00138106
vn -0.70572370 0.70848584 0.00138106
vn -0.70572370 0.70848584 0.00138106
vn -0.70572370 0.70848584 0.00138106
vn 0.70572370 0.70848584 0.00138106
vn 0.70572370 0.70848584 0.00138106
vn 0.70572370 0.70848584 0.00138106
vn 0.70572370 0.70848584 0.00138106
vn -0.70848584 -0.70572370 0.00138106
vn -0.70848584 -0.70572370 0.00138106
vn -0.70848584 -0.70572370 0.00138106
vn -0.70848584 -0.70572370 0.00138106
vn -0.70572370 0.70848584 0.00138106
vn -0.70572370 0.70848584 0.00138106
vn -0.70572370 0.70848584 0.00138106
vn -0.70572370 0.70848584 0.00138106
vn 0.70572370 0.70848584 0.00138106
vn 0.70572370 0.70848584 0.00138106
vn 0.70572370 0.70848584 0.00138106
vn 0.70572370 0.70848584 0.00138106
vn 0.70848584 -0.70572370 0.00138106
vn 0.70848584 -0.70572370 0.00138106
vn 0.70848584 -0.70572370 0.00138106
vn 0.70848584 -0.70572370 0.00138106
vn 0.70572370 0.70848584 0.00138106
vn 0.70572370 0.70848584 0.00138106
vn 0.70572370 0.70848584 0.00138106
vn 0.70572370 0.70848584 0.00138106
vn -0.70572370 0.70848584 0.00138106
vn -0.70572370 0.70848584 0.00138106
vn -0.70572370 0.70848584 0.00138106
vn -0.70572370 0.70848584 0.00138106
vn 0.70848584 -0.70572370 0.00138106
vn 0.70848584 -0.70572370 0.00138106
vn 0.70848584 -0.70572370 0.00138106
vn 0.70848584 -0.70572370 0.00138106
vn -0.70848584 -0.70572370 0.00138106
vn -0.70848584 -0.70572370 0.00138106
vn -0.70848584 -0.70572370 0.00138106
vn -0.70848584 -0.70572370 0.00138106
vn 0.70848584 -0.70572370 0.00138106
vn 0.70848584 -0.70572370 0.00138106
vn 0.70848584 -0.70572370 0.00138106
vn 0.70848584 -0.70572370 0.00138106
vn 0.00097752 0.00097752 0.99999905
vn 0.00097752 0.00097752 0.99999905
vn 0.00097752 0.00097752 0.99999905
vn 0.00097752 0.00097752 0.99999905
vn 0.00097752 0.00097752 0.99999905
vn 0.00097752 0.00097752 0.99999905
vn 0.00097752 0.00097752 0.99999905
vn 0.00097752 0.00097752 0.99999905
vn 0.00097752 0.00097752 0.99999905
vn 0.00097752 0.00097752 0.99999905
vn 0.00097752 0.00097752 0.99999905
vn 0.00097752 0.00097752 0.99999905
vn 0.00097752 0.00097752 -0.99999905
vn 0.00097752 0.00097752 -0.99999905
vn 0.00097752 0.00097752 -0.99999905
vn 0.00097752 0.00097752 -0.99999905
vn 0.00097752 0.00097752 -0.99999905
vn 0.00097752 0.00097752 -0.99999905
vn 0.00097752 0.00097752 -0.99999905
vn 0.00097752 0.00097752 -0.99999905
vn 0.00097752 0.00097752 -0.99999905
vn 0.00097752 0.00097752 -0.99999905
vn 0.00097752 0.00097752 -0.99999905
vn 0.00097752 0.00097752 -0.99999905
g cf2_1
f 1//1 2//2 3//3
f 2//2 1//1 4//4
f 5//5 6//6 7//7
f 6//6 5//5 8//8
f 9//9 10//10 11//11
f 9//9 12//12 10//10
f 13//13 14//14 15//15
f 14//14 13//13 16//16
f 17//17 18//18 19//19
f 18//18 17//17 20//20
f 21//21 22//22 23//23
f 21//21 24//24 22//22
f 25//25 26//26 27//27
f 26//26 25//25 28//28
f 29//29 30//30 31//31
f 30//30 29//29 32//32
f 33//33 34//34 35//35
f 33//33 36//36 34//34
f 37//37 38//38 39//39
f 37//37 40//40 38//38
f 41//41 42//42 43//43
f 41//41 44//44 42//42
f 45//45 46//46 47//47
f 45//45 48//48 46//46
f 49//49 50//50 51//51
f 50//50 49//49 52//52
f 53//53 54//54 55//55
f 53//53 52//52 56//56
f 55//55 57//57 51//51
f 55//55 58//58 57//57
f 55//55 51//51 50//50
f 49//49 59//59 52//52
f 53//53 56//56 54//54
f 58//58 54//54 59//59
f 54//54 58//58 55//55
f 59//59 49//49 58//58
f 60//60 52//52 59//59
f 56//56 52//52 60//60
f 61//61 62//62 63//63
f 64//64 65//65 66//66
f 65//65 61//61 67//67
f 68//68 66//66 65//65
f 68//68 69//69 66//66
f 62//62 65//65 64//64
f 68//68 70//70 69//69
f 62//62 61//61 65//65
f 70//70 71//71 63//63
f 62//62 69//69 63//63
f 70//70 63//63 69//69
f 61//61 72//72 67//67
f 70//70 72//72 71//71
f 70//70 67//67 72//72
#52 faces
